<svg class="icon" viewBox="0 0 1024 1024" version="1.1" xmlns="http://www.w3.org/2000/svg"
     width="16" height="16">
    <path d="M709.487 501.104c-4.393-10.667-14.831-17.628-26.355-17.628H340.866c-11.524 0-21.962 6.959-26.355 17.628-4.45 10.61-1.997 22.932 6.161 31.089l171.133 171.133c5.59 5.533 12.892 8.328 20.193 8.328s14.603-2.796 20.193-8.328l171.133-171.133c8.101-8.157 10.553-20.48 6.161-31.089zM512 141.211c-31.489 0-57.044 25.499-57.044 57.044v285.222c0 31.546 25.556 57.044 57.044 57.044 31.546 0 57.044-25.499 57.044-57.044V198.255c0-31.546-25.499-57.044-57.044-57.044z m313.744 627.49H198.255c-31.489 0-57.044 25.499-57.044 57.045s25.556 57.044 57.044 57.044h627.489c31.546 0 57.044-25.499 57.044-57.044s-25.499-57.045-57.044-57.045z"
          fill="#1296db"/>
</svg>