<?xml version="1.0" standalone="no"?><!DOCTYPE svg PUBLIC "-//W3C//DTD SVG 1.1//EN"
        "http://www.w3.org/Graphics/SVG/1.1/DTD/svg11.dtd">
<svg t="1719135885528" class="icon" viewBox="0 0 1024 1024" version="1.1" xmlns="http://www.w3.org/2000/svg"
     p-id="16091"
     width="16" height="16">
    <path d="M886.7 298.5c-10.3-18.3-22.5-30.4-32.5-38v-68.9c1.5-13 4.3-56.2-21.1-81.6-9.5-9.5-26.6-20.1-53.5-16.4-34.2 4.7-72.5 22.3-103.2 36.5-11.3 5.2-26.5 12.2-32.3 13.8-5.3-0.3-16.5-2.1-26.4-3.6-23.4-3.6-55.3-8.6-85.7-8.6-30.4 0-62.3 5-85.7 8.6-10 1.5-21.1 3.3-26.4 3.6-5.8-1.6-21-8.6-32.3-13.8-30.7-14.2-69-31.8-103.2-36.5-27-3.7-44 6.9-53.5 16.4-25.4 25.4-22.6 68.6-21.1 81.6v68.9c-10 7.6-22.2 19.7-32.5 38-24.8 44.1-28.8 104.4-11.9 179.3 16.9 74.8 61.3 135.1 128.3 174.6 21.1 12.4 41.3 20.9 57.9 26.6-12.7 31.7-20.3 72.6-22.8 122.2-63.6-0.8-109.8-15.7-133.8-43.1-23.4-26.7-19.7-57.7-19.5-59v0.3c0.1-0.5 0.2-1 0.2-1.6 2.2-16.4-9.3-31.5-25.8-33.7-16.4-2.2-31.5 9.3-33.7 25.8 0 0.2 0 0.4-0.1 0.6-0.4 3-2.2 16.7 0.7 35.6 4 26.2 15 50.5 32 70.3 36 42 96.4 63.7 179.5 64.7 0.8 25.1 2.5 41.9 2.6 43 1.7 16.5 16.4 28.5 32.9 26.8 16.5-1.7 28.5-16.4 26.8-32.9 0-0.4-4.2-41.5-2-90.2 2.6-60 13.8-106.2 31.3-130.3 6.2-8.5 7.6-19.5 3.6-29.2-4-9.7-12.7-16.5-23-18.1-1.6-0.3-38.3-6.9-78.1-30.7-52.2-31.3-85.3-76.7-98.5-135.1-16.1-71.1-7-111.3 3.5-132.5 9.4-19 21.2-25.8 23.5-27 12.2-4.1 18.8-14.9 18.8-27.9v-87.4c0-1.4-0.1-2.7-0.3-4.1-1.7-13.4 0.4-28.6 3.4-32.8 0.6-0.1 1.6-0.1 3.3 0.2 25.4 3.5 60.6 19.7 86.3 31.6 28.4 13.1 42.7 19.4 55.9 19.4 9 0 20.8-1.8 37.1-4.4 22.6-3.5 50.8-7.9 76.5-7.9 25.7 0 53.9 4.4 76.5 7.9 16.3 2.5 28.1 4.4 37.1 4.4 13.2 0 27.5-6.3 55.9-19.4 25.7-11.8 60.9-28.1 86.3-31.6 1.6-0.2 2.7-0.2 3.2-0.2 1 1.6 3.1 6.4 3.8 15.7 0.7 8.8-0.2 16.4-0.3 17.1-0.2 1.4-0.3 2.6-0.3 4.1V277c0 12.9 6.6 23.8 18.8 27.9 2.4 1.2 14.2 8 23.5 27 10.5 21.2 19.6 61.4 3.5 132.5-13.2 58.3-46.3 103.8-98.5 135.1-39.7 23.8-76.5 30.4-78.1 30.7-10.3 1.6-19 8.5-23 18.1-4 9.7-2.6 20.7 3.6 29.2 37.3 51 33.8 176.4 29.3 220.4-1.7 16.5 10.3 31.2 26.8 32.9 1 0.1 2.1 0.2 3.1 0.2 15.2 0 28.2-11.5 29.8-26.9 0.2-1.8 4.6-45.2 2.3-98.1-2.2-51.9-9.9-94.4-23-127.2 16.5-5.7 36.8-14.2 57.9-26.6 67.1-39.5 111.4-99.8 128.3-174.6 17.1-74.7 13.1-135.1-11.7-179.1z"
          p-id="16092" fill="#6C707E"></path>
</svg>