<?xml version="1.0" standalone="no"?><!DOCTYPE svg PUBLIC "-//W3C//DTD SVG 1.1//EN" "http://www.w3.org/Graphics/SVG/1.1/DTD/svg11.dtd"><svg t="1719062324731" class="icon" viewBox="0 0 1024 1024" version="1.1" xmlns="http://www.w3.org/2000/svg" p-id="4655" xmlns:xlink="http://www.w3.org/1999/xlink" width="16" height="16"><path d="M281.6 307.2a25.6 25.6 0 0 0-25.6 25.6v358.4a25.6 25.6 0 0 0 25.6 25.6h460.8a25.6 25.6 0 0 0 25.6-25.6v-358.4a25.6 25.6 0 0 0-25.6-25.6h-460.8z m0-51.2h460.8A76.8 76.8 0 0 1 819.2 332.8v358.4a76.8 76.8 0 0 1-76.8 76.8h-460.8A76.8 76.8 0 0 1 204.8 691.2v-358.4A76.8 76.8 0 0 1 281.6 256z m65.9456 345.6l75.1616-53.0432 56.064 31.5392a25.6 25.6 0 0 0 28.7744-2.56l68.352-56.1152 96.6144 103.3728a25.6 25.6 0 0 0 37.376-34.9696L596.992 468.9408a25.6 25.6 0 0 0-34.9696-2.304L488.6016 526.848l-54.8352-30.8736a25.6 25.6 0 0 0-27.3408 1.3824l-88.3712 62.3104a25.6 25.6 0 0 0 29.4912 41.8304z" fill="#CED0D6" p-id="4656"></path></svg>