<?xml version="1.0" standalone="no"?><!DOCTYPE svg PUBLIC "-//W3C//DTD SVG 1.1//EN" "http://www.w3.org/Graphics/SVG/1.1/DTD/svg11.dtd">
<svg t="1719225721626" class="icon" viewBox="0 0 1024 1024" version="1.1" xmlns="http://www.w3.org/2000/svg"
     p-id="11035"
     width="16" height="16"><path d="M121.6 723.2l38.4-76.8 121.6-256 76.8-166.4h204.8c-6.4 19.2-6.4 32-12.8 44.8 0 12.8-6.4 32-6.4 64s-6.4 57.6-12.8 83.2c0 25.6-6.4 64-19.2 115.2 19.2-32 44.8-64 70.4-96 25.6-32 44.8-64 70.4-96 25.6-38.4 44.8-57.6 51.2-70.4s19.2-25.6 32-51.2h211.2c-38.4 83.2-70.4 153.6-89.6 211.2-51.2 115.2-83.2 198.4-96 236.8-6.4 6.4-12.8 25.6-19.2 51.2H601.6c12.8-19.2 32-76.8 70.4-160s57.6-134.4 64-160c6.4-12.8 6.4-25.6 12.8-44.8L640 512l-147.2 211.2H358.4l32-204.8 12.8-108.8v-12.8c0-6.4 6.4-19.2 6.4-32l-44.8 102.4-96 211.2-19.2 44.8h-128z" fill="#CED0D6" p-id="11036"></path></svg>