<svg class="icon" viewBox="0 0 1024 1024" version="1.1" xmlns="http://www.w3.org/2000/svg"
     width="16" height="16">
    <path d="M167.168 342.912A384 384 0 0 0 681.216 856.746667c37.248 15.914667 73.344 26.368 106.24 29.056 38.485333 3.157333 78.677333-4.053333 107.776-33.152 32.085333-32.085333 37.546667-77.482667 31.829333-119.978667-5.248-38.826667-20.48-81.92-42.752-126.336A384 384 0 0 0 417.749333 139.690667c-44.544-22.357333-87.68-37.632-126.506666-42.922667-42.538667-5.76-87.978667-0.298667-120.106667 31.829333-29.098667 29.141333-36.309333 69.376-33.152 107.861334 2.730667 32.981333 13.226667 69.12 29.184 106.453333z m59.904-88.362667a176.469333 176.469333 0 0 1-4.053333-25.045333c-2.048-25.002667 3.84-35.925333 8.448-40.533333 5.12-5.12 18.048-11.733333 48.298666-7.637334 8.448 1.152 17.621333 3.072 27.434667 5.802667a385.706667 385.706667 0 0 0-80.128 67.413333z m609.706667 462.378667a209.066667 209.066667 0 0 1 5.717333 27.178667c4.096 30.250667-2.56 43.178667-7.594667 48.213333-4.650667 4.650667-15.530667 10.538667-40.533333 8.490667a176.256 176.256 0 0 1-24.789333-4.010667 385.706667 385.706667 0 0 0 67.2-79.872z m-159.146667 43.648c-71.552-37.461333-154.666667-99.114667-234.965333-179.413333-80.213333-80.213333-141.824-163.2-179.328-234.666667A299.392 299.392 0 0 1 425.386667 226.048a298.666667 298.666667 0 0 1 252.245333 534.528z m-97.152 42.24a298.666667 298.666667 0 0 1-359.253333-359.210667c41.130667 64.682667 96 132.778667 161.109333 197.888 65.194667 65.194667 133.376 120.106667 198.144 161.28z"
          fill="#6C707E"/>
</svg>