<svg class="icon" viewBox="0 0 1024 1024" version="1.1" xmlns="http://www.w3.org/2000/svg"
     width="16" height="16">
    <path d="M832.1 685.749498C802.1 704.228 770.756 704.185997 739.1 704.130502 578.1545 703.847002 417.2075 703.986502 256.262 704.013498 224.132 704.017997 196.223 727.899501 192.5915 758.317997 188.498 792.609498 207.911 822.804499 240.9995 829.704499 256.637 832.965498 273.2645 832.033997 289.445 832.056499 412.397 832.22 535.349 832.194502 658.300998 832.125498 697.028 832.103002 735.783501 832.611501 774.472998 831.309498 804.215002 830.310502 829.694003 804.276499 831.393498 774.594502 832.506502 755.163501 831.950003 735.636499 832.088 716.152998 832.155501 706.716499 832.1 697.28 832.1 685.749498ZM896 245 896 779C895.571002 780.417498 894.952998 781.809498 894.746003 783.26 887.391501 834.078502 859.413498 868.813997 812.090003 887.764998 801.636499 891.950003 790.059501 893.328499 779 896L245 896C243.5915 895.575501 242.2085 894.925997 240.7685 894.756499 189.4985 888.720499 146.4215 851.931501 132.842 802.266502 130.757 794.640499 129.5915 786.762502 128 779L128 245C128.4425 243.3395 129.038 241.7015 129.305 240.0125 137.7395 186.5165 167.792 151.175 218.942 133.889 227.333 131.0525 236.2985 129.92 245 128L779 128C780.414502 128.423 781.800499 129.0275 783.244998 129.242 835.551501 137.027 870.807501 165.9125 888.918502 215.4095 892.382003 224.87 893.694502 235.1165 896 245L896 245Z"
          fill="#CED0D6"/>
</svg>