<?xml version="1.0" standalone="no"?><!DOCTYPE svg PUBLIC "-//W3C//DTD SVG 1.1//EN" "http://www.w3.org/Graphics/SVG/1.1/DTD/svg11.dtd"><svg t="1719062538769" class="icon" viewBox="0 0 1365 1024" version="1.1" xmlns="http://www.w3.org/2000/svg" p-id="7701" width="170.625" height="128" xmlns:xlink="http://www.w3.org/1999/xlink"><path d="M512 0l-28.416 85.333333H85.333333v597.333334l110.336-110.336a85.333333 85.333333 0 0 1 112.682667-7.125334l8.064 7.125334L426.666667 682.666667l158.037333-189.696L768 768l-85.333333 256H85.333333a85.376 85.376 0 0 1-84.778666-75.392L0 938.666667V85.333333A85.333333 85.333333 0 0 1 75.392 0.554667L85.333333 0h426.666667z m768 0c43.818667 0 79.829333 32.853333 84.778667 75.349333L1365.333333 85.333333v853.333334a85.333333 85.333333 0 0 1-75.349333 84.778666L1280 1024H853.333333l85.333334-256-259.157334-388.778667 109.226667-130.986666a85.290667 85.290667 0 0 1 123.093333-8.405334l7.210667 7.466667 360.96 421.12V85.333333H654.250667L682.666667 0h597.333333zM384.042667 170.666667c23.808 0 46.122667 6.485333 65.237333 17.834666L426.666667 256l69.546666 104.32a128 128 0 1 1-112.170666-189.696z" fill="#CED0D6" p-id="7702"></path></svg>