<svg viewBox="0 0 1024 1024" version="1.1" xmlns="http://www.w3.org/2000/svg"
     width="16" height="16">
    <path d="M753.88 389.72c-36.68 1.34-73.45 0.22-112.23 0.22 1.88-11.6 3.44-20.21 4.64-28.86 6.55-47.13 6.31-93.94-13.56-138.13-28.43-63.25-114.92-78.7-160.78-35.97-29 27.02-35.2 60.4-37.8 96.37-4.37 60.38-47.7 113.91-106.96 124.27-35.91 6.28-73.24 4.43-109.95 6.07-39.81 1.78-61.4 23.31-61.49 62.91-0.24 108.12-0.2 216.25-0.02 324.37 0.06 36.95 23.12 60.14 59.98 60.14 163.37-0.03 326.75-0.17 490.12-0.61 49.31-0.13 93.17-35.37 104.1-83.8 18.82-83.32 36.31-166.93 55.47-250.17 14-60.82-20.19-140.15-111.52-136.81zM282.74 802.84h-69.16V471.17h69.16v331.67z m526.1-284.7c-17.82 80.54-35.7 161.06-53.63 241.57-6.45 28.98-24.54 43.78-53.78 43.84-114.66 0.25-229.32 0.4-343.99 0.59-4.68 0.01-9.36 0-16.4 0V671.95c0-64.16 0.3-128.33-0.28-192.49-0.1-11.41 3.17-17.01 14.25-20.2 81.72-23.52 136.07-101.64 136.82-182.34 0.06-6.48 0.95-13.07 2.44-19.38 5.42-22.96 19.75-36.56 39.24-37.9 21.99-1.51 42.67 11.21 49.89 32.71 13.64 40.62 11.11 81.89 2.56 123.1-1.92 9.28-4.67 18.39-7.05 27.58-7.3 28.15 2.8 42.21 32.11 42.74 46.92 0.84 93.86 0.85 140.8 1.2 47.02 0.34 67.15 25.38 57.02 71.17z"
          fill="#CED0D6"/>
</svg>